<?xml version="1.0" standalone="no" ?>
<!DOCTYPE svg PUBLIC "-//W3C//DTD SVG 20010904//EN"
  "http://www.w3.org/TR/2001/REC-SVG-20010904/DTD/svg10.dtd">
<svg
  version="1.0"
  xmlns="http://www.w3.org/2000/svg"
  width="20px"
  height="20px"
  viewBox="0 0 225.000000 225.000000"
  preserveAspectRatio="xMidYMid meet"
>

<g
    transform="translate(0.000000,225.000000) scale(0.100000,-0.100000)"
    fill="#626262"
    stroke="none"
  >
<path
      d="M953 2126 c-391 -75 -698 -362 -805 -754 -32 -116 -32 -354 0 -472
30 -108 54 -166 111 -264 200 -342 595 -544 973 -497 483 59 857 452 894 938
23 305 -125 633 -377 836 -101 83 -268 167 -389 198 -108 27 -304 34 -407 15z
m392 -135 c108 -28 265 -107 348 -176 197 -165 310 -413 310 -680 0 -472 -338
-836 -818 -880 -144 -13 -311 21 -460 94 -310 153 -500 478 -482 826 22 433
320 764 752 836 78 13 261 2 350 -20z"
      fill="#626262"
    />
<path
      d="M1081 1624 c-20 -25 -21 -40 -21 -225 l0 -199 -199 0 c-185 0 -200
-1 -225 -21 -31 -25 -34 -59 -5 -85 19 -17 41 -19 225 -22 l204 -3 0 -200 0
-200 25 -25 c19 -19 31 -23 48 -18 47 14 47 15 47 235 l0 208 210 3 c223 3
229 5 245 55 4 17 -1 29 -19 48 l-25 25 -206 0 -205 0 0 209 c0 206 0 210 -22
225 -32 23 -54 20 -77 -10z"
      fill="#626262"
    />
</g>
</svg>
