<?xml version="1.0" standalone="no"?>
<!DOCTYPE svg PUBLIC "-//W3C//DTD SVG 20010904//EN"
 "http://www.w3.org/TR/2001/REC-SVG-20010904/DTD/svg10.dtd">
<svg version="1.0" xmlns="http://www.w3.org/2000/svg"
 width="18px" height="18px" viewBox="0 0 225.000000 225.000000"
 preserveAspectRatio="xMidYMid meet">

<g transform="translate(0.000000,225.000000) scale(0.100000,-0.100000)"
fill="#000000" stroke="none">
<path d="M367 2229 c-136 -15 -258 -106 -320 -236 l-32 -68 -3 -770 c-3 -807
-2 -835 41 -920 48 -96 134 -171 233 -205 55 -19 87 -20 839 -20 748 0 784 1
838 19 110 38 191 113 244 227 l28 59 0 806 0 805 -38 76 c-64 131 -178 212
-319 229 -92 10 -1419 9 -1511 -2z m1558 -183 c28 -12 65 -40 84 -61 70 -80
66 -29 66 -865 0 -668 -2 -759 -16 -790 -23 -52 -65 -97 -118 -128 l-46 -27
-770 0 -770 0 -46 27 c-26 15 -59 42 -74 60 -61 72 -58 34 -58 858 0 833 -4
787 63 864 33 37 72 62 120 77 14 4 360 8 770 8 l745 1 50 -24z"/>
<path d="M1633 1825 c-21 -14 -112 -145 -537 -772 -87 -128 -162 -233 -168
-233 -5 0 -83 72 -173 160 -198 195 -192 193 -297 93 -80 -77 -101 -114 -86
-153 10 -27 394 -419 491 -501 45 -38 66 -49 92 -49 78 0 61 -21 512 645 364
538 423 629 423 651 0 33 -32 66 -118 122 -83 55 -105 61 -139 37z"/>
</g>
</svg>
