<svg
  xmlns="http://www.w3.org/2000/svg"
  xmlns:xlink="http://www.w3.org/1999/xlink"
  viewBox="0 0 64 64"
  fill="#D84141"
  width="20px"
>
  <path
    d="M26.9375 4C26.0435 4 25.203813 4.3940781 24.632812 5.0800781C24.574813 5.1490781 24.527234 5.2256406 24.490234 5.3066406L22.357422 10L11 10C9.346 10 8 11.346 8 13L8 19C8 20.654 9.346 22 11 22L13 22L13 57C13 58.654 14.346 60 16 60L48 60C49.654 60 51 58.654 51 57L51 22L53 22C54.654 22 56 20.654 56 19L56 13C56 11.346 54.654 10 53 10L41.644531 10L39.511719 5.3066406C39.474719 5.2256406 39.426141 5.1480781 39.369141 5.0800781C38.797141 4.3940781 37.957453 4 37.064453 4L26.9375 4 z M 26.9375 6L37.0625 6C37.3225 6 37.569906 6.1003437 37.753906 6.2773438L39.447266 10L24.552734 10L26.246094 6.2773438C26.431094 6.1003438 26.6775 6 26.9375 6 z M 11 12L53 12C53.551 12 54 12.448 54 13L54 19C54 19.552 53.551 20 53 20L11 20C10.449 20 10 19.552 10 19L10 13C10 12.448 10.449 12 11 12 z M 14 14C13.448 14 13 14.447 13 15L13 17C13 17.553 13.448 18 14 18C14.552 18 15 17.553 15 17L15 15C15 14.447 14.552 14 14 14 z M 19 14C18.448 14 18 14.447 18 15L18 17C18 17.553 18.448 18 19 18C19.552 18 20 17.553 20 17L20 15C20 14.447 19.552 14 19 14 z M 24 14C23.448 14 23 14.447 23 15L23 17C23 17.553 23.448 18 24 18C24.552 18 25 17.553 25 17L25 15C25 14.447 24.552 14 24 14 z M 29 14C28.448 14 28 14.447 28 15L28 17C28 17.553 28.448 18 29 18C29.552 18 30 17.553 30 17L30 15C30 14.447 29.552 14 29 14 z M 35 14C34.448 14 34 14.447 34 15L34 17C34 17.553 34.448 18 35 18C35.552 18 36 17.553 36 17L36 15C36 14.447 35.552 14 35 14 z M 40 14C39.448 14 39 14.447 39 15L39 17C39 17.553 39.448 18 40 18C40.552 18 41 17.553 41 17L41 15C41 14.447 40.552 14 40 14 z M 45 14C44.448 14 44 14.447 44 15L44 17C44 17.553 44.448 18 45 18C45.552 18 46 17.553 46 17L46 15C46 14.447 45.552 14 45 14 z M 50 14C49.448 14 49 14.447 49 15L49 17C49 17.553 49.448 18 50 18C50.552 18 51 17.553 51 17L51 15C51 14.447 50.552 14 50 14 z M 15 22L49 22L49 57C49 57.552 48.551 58 48 58L16 58C15.449 58 15 57.552 15 57L15 56L38 56C38.552 56 39 55.553 39 55C39 54.447 38.552 54 38 54L15 54L15 22 z M 20 28C19.448 28 19 28.447 19 29L19 41C19 41.553 19.448 42 20 42C20.552 42 21 41.553 21 41L21 29C21 28.447 20.552 28 20 28 z M 28 28C27.448 28 27 28.447 27 29L27 49C27 49.553 27.448 50 28 50C28.552 50 29 49.553 29 49L29 29C29 28.447 28.552 28 28 28 z M 36 28C35.448 28 35 28.447 35 29L35 49C35 49.553 35.448 50 36 50C36.552 50 37 49.553 37 49L37 29C37 28.447 36.552 28 36 28 z M 44 28C43.448 28 43 28.447 43 29L43 33C43 33.553 43.448 34 44 34C44.552 34 45 33.553 45 33L45 29C45 28.447 44.552 28 44 28 z M 44 36C43.448 36 43 36.447 43 37L43 49C43 49.553 43.448 50 44 50C44.552 50 45 49.553 45 49L45 37C45 36.447 44.552 36 44 36 z M 20 44C19.448 44 19 44.447 19 45L19 49C19 49.553 19.448 50 20 50C20.552 50 21 49.553 21 49L21 45C21 44.447 20.552 44 20 44 z M 42 54C41.448 54 41 54.447 41 55C41 55.553 41.448 56 42 56L46 56C46.552 56 47 55.553 47 55C47 54.447 46.552 54 46 54L42 54 z"
    fill="#D84141"
  />
</svg>
