<svg
  xmlns="http://www.w3.org/2000/svg"
  xmlns:xlink="http://www.w3.org/1999/xlink"
  viewBox="0 0 32 32"
  fill="#269056"
  width="20px"
>
  <path
    d="M22.462891 4.0078125C22.203865 3.9918086 21.944668 4.026709 21.701172 4.1074219C21.21418 4.2688475 20.788236 4.613031 20.542969 5.0996094L20.074219 6.0253906L19.621094 5.7988281L18.691406 7.6601562L17.794922 7.2109375L17.792969 7.2089844C17.491451 7.0591842 17.162626 6.9899131 16.839844 7C16.127565 7.022009 15.448157 7.4317821 15.111328 8.1074219L12.136719 14.058594L13.925781 14.951172L16.900391 9L17.798828 9.4492188L11.033203 22.996094L11.988281 25.537109L11.203125 27.107422L12.992188 28.001953L13.771484 26.445312L16.400391 25.677734L24.988281 8.4824219L24.546875 8.2617188L25.009766 7.3496094 A 1.0001 1.0001 0 0 0 25.009766 7.3476562C25.501632 6.3698504 25.097136 5.1481874 24.119141 4.6582031 A 1.0001 1.0001 0 0 0 24.117188 4.6582031L23.224609 4.2128906C22.980772 4.0907246 22.721917 4.0238164 22.462891 4.0078125 z M 22.328125 6 A 1.0001 1.0001 0 0 0 22.330078 6L23.222656 6.4472656L22.757812 7.3671875L21.863281 6.9199219L22.328125 6.0019531 A 1.0001 1.0001 0 0 0 22.328125 6 z M 20.515625 8.4824219L22.306641 9.3769531L15.001953 24.001953L13.691406 24.384766L13.210938 23.109375L20.515625 8.4824219 z M 25 12L25 14L25.5 14C26.327 14 27 14.673 27 15.5C27 16.327 26.327 17 25.5 17L22.970703 17L21.970703 19L25.5 19C27.43 19 29 17.43 29 15.5C29 13.57 27.43 12 25.5 12L25 12 z M 8.5 17C5.47 17 3 19.47 3 22.5C3 25.28 5.0798438 27.630937 7.8398438 27.960938C8.0598438 27.990938 8.28 28 8.5 28L9 28L9 26L8.5 26C8.36 26 8.2200781 25.990703 8.0800781 25.970703C6.3200781 25.770703 5 24.27 5 22.5C5 20.57 6.57 19 8.5 19L10.789062 19L11.789062 17L8.5 17 z"
    fill="#269056"
  />
</svg>
