<svg
  xmlns="http://www.w3.org/2000/svg"
  xmlns:xlink="http://www.w3.org/1999/xlink"
  viewBox="0 0 24 24"
  fill="#B89B41"
  width="20px"
>
  <path
    d="M12 2C6.476563 2 2 6.476563 2 12C2 17.523438 6.476563 22 12 22C17.523438 22 22 17.523438 22 12C22 6.476563 17.523438 2 12 2 Z M 12 6C17.625 6 21 12 21 12C21 12 17.625 18 12 18C6.375 18 3 12 3 12C3 12 6.375 6 12 6 Z M 12 7C9.238281 7 7 9.238281 7 12C7 14.761719 9.238281 17 12 17C14.761719 17 17 14.761719 17 12C17 9.238281 14.761719 7 12 7Z"
    fill="#B89B41"
  />
</svg>
